<?xml version="1.0" standalone="no"?><!DOCTYPE svg PUBLIC "-//W3C//DTD SVG 1.1//EN" "http://www.w3.org/Graphics/SVG/1.1/DTD/svg11.dtd"><svg t="1680332878431" class="icon" viewBox="0 0 1024 1024" version="1.1" xmlns="http://www.w3.org/2000/svg" p-id="1988" xmlns:xlink="http://www.w3.org/1999/xlink" width="200" height="200"><path d="M561.855252 80.910146c-10.847837-23.103653-30.143548-40.607391-54.303185-49.31126l-72.382914-26.111608c-48.895267-17.663735-105.790413 8.959866-123.390149 57.023145L61.478758 744.0042c-0.991985 2.815958-1.375979 5.791913-0.991985 8.735869l29.567556 254.364185c0.799988 7.135893 5.631916 13.279801 12.511812 15.711764 2.175967 0.767988 20.543692-36.095459 22.623661-36.095459L109.158043 1024c4.799928 0 9.631856-1.823973 13.247801-5.215922l187.581186-176.061359c2.207967-2.01597 3.839942-4.543932 4.895927-7.32789l250.236246-681.525777C573.887072 129.901411 572.735089 103.9818 561.855252 80.910146zM517.631916 169.772813l-232.540512 626.550602-146.141808 135.741964-23.071654-196.093059L99.206192 752.868067l249.212262-643.478348c9.919851-26.623601 41.695375-41.471378 69.182962-31.647525l67.710984 24.191637c13.535797 4.799928 24.319635 14.559782 30.463543 27.35959C521.919851 142.061229 522.591841 156.429014 517.631916 169.772813zM714.01297 350.6981l230.460543 0c10.623841 0 19.199712-11.743824 19.199712-26.207607 0-14.463783-8.607871-26.207607-19.199712-26.207607l-230.460543 0c-10.591841 0-19.199712 11.743824-19.199712 26.207607C694.781258 338.954276 703.389129 350.6981 714.01297 350.6981zM944.473513 504.67979 598.750699 504.67979c-10.591841 0-19.199712 11.743824-19.199712 26.207607 0 14.495783 8.607871 26.239606 19.199712 26.239606l345.722814 0c10.623841 0 19.199712-11.743824 19.199712-26.239606C963.673225 516.423614 955.065354 504.67979 944.473513 504.67979zM944.473513 711.076694 521.951851 711.076694c-10.591841 0-19.199712 11.743824-19.199712 26.207607 0 14.463783 8.607871 26.207607 19.199712 26.207607l422.521662 0c10.623841 0 19.199712-11.743824 19.199712-26.207607C963.673225 722.820518 955.065354 711.076694 944.473513 711.076694z" fill="#5D5D5D" p-id="1989"></path></svg>