<?xml version="1.0" standalone="no"?><!DOCTYPE svg PUBLIC "-//W3C//DTD SVG 1.1//EN" "http://www.w3.org/Graphics/SVG/1.1/DTD/svg11.dtd"><svg t="1680332956824" class="icon" viewBox="0 0 1024 1024" version="1.1" xmlns="http://www.w3.org/2000/svg" p-id="4175" xmlns:xlink="http://www.w3.org/1999/xlink" width="200" height="200"><path d="M865.152 589.568a202.154667 202.154667 0 0 0-121.642667-159.616 128 128 0 1 0-156.202666 0 198.954667 198.954667 0 0 0-21.930667 11.008 234.410667 234.410667 0 0 0-94.506667-64.341333 146.432 146.432 0 1 0-160.341333 0 234.24 234.24 0 0 0-153.6 213.546666 80 80 0 0 0-49.194667 73.728v172.330667a79.957333 79.957333 0 0 0 79.872 79.872h648.533334a80 80 0 0 0 79.914666-79.872v-172.416a79.872 79.872 0 0 0-50.901333-74.24z m-199.765333-324.736a64 64 0 1 1-64 64 64 64 0 0 1 64.170666-64z m0 213.333333a137.856 137.856 0 0 1 133.802666 105.685334h-174.933333a232.917333 232.917333 0 0 0-23.125333-89.6 136.106667 136.106667 0 0 1 64.426666-16.042667zM390.656 171.904a82.346667 82.346667 0 1 1-82.346667 82.346667A82.432 82.432 0 0 1 390.826667 171.861333z m0 254.165333a170.325333 170.325333 0 0 1 169.557333 157.866667h-157.866666a31.872 31.872 0 0 0-25.258667 12.416l-28.885333 37.205333-30.848-37.845333a32.085333 32.085333 0 0 0-24.789334-11.776H221.141333A170.282667 170.282667 0 0 1 390.826667 426.112z m461.312 410.026667a16.085333 16.085333 0 0 1-15.914667 15.872h-648.533333a16.085333 16.085333 0 0 1-15.872-15.872v-172.288a16.085333 16.085333 0 0 1 15.872-15.914667h89.856l46.677333 57.258667a32.768 32.768 0 0 0 25.173334 11.776 32.128 32.128 0 0 0 24.917333-12.373333l43.904-56.661334h418.133333a16.128 16.128 0 0 1 15.914667 15.914667z" p-id="4176"></path></svg>